# xmcd
#
# Track frame offsets:
#	150
#	13144
#	26345
#	38845
#	51578
#	64702
#	77185
#	89666
#	102420
#	114979
#	127888
#	140458
#	152151
#	163535
#	174722
#	186811
#	198608
#	211364
#	223887
#	237184
#
# Disc length: 3331 seconds
#
# Revision: 0
# Processed by: cddbd v1.4PL0 Copyright (c) Steve Scherf et al.
# Submitted via: dBpowerAMP V4.0
#
DISCID=220d0114
DTITLE=Roy Acuff - Famous Country Music Makers
DYEAR=1900
DGENRE=Country
TTITLE0=Wabash Cannonball
TTITLE1=Great Speckled Bird
TTITLE2=Freight Train Blues
TTITLE3=Beautiful Brown Eyes
TTITLE4=Living On The Mountain, Baby Mine
TTITLE5=The Streamlined Cannonball
TTITLE6=Be Honest With Me
TTITLE7=Worried Mind
TTITLE8=Wreck On The Highway
TTITLE9=Night Train To Memphis
TTITLE10=The Prodigal Son
TTITLE11=Low And Lonely
TTITLE12=Write Me Sweetheart
TTITLE13=Not A Word From Home
TTITLE14=I'll Forgive You, But I Can't Forget
TTITLE15=Wait For The Light To Shine
TTITLE16=We Live In Two Different Worlds
TTITLE17=Pins And Needles
TTITLE18=Waiting For My Call To Glory
TTITLE19=(Our Own)  Jole Blon
EXTD=
EXTT0=
EXTT1=
EXTT2=
EXTT3=
EXTT4=
EXTT5=
EXTT6=
EXTT7=
EXTT8=
EXTT9=
EXTT10=
EXTT11=
EXTT12=
EXTT13=
EXTT14=
EXTT15=
EXTT16=
EXTT17=
EXTT18=
EXTT19=
PLAYORDER=
